<svg xmlns="http://www.w3.org/2000/svg" xmlns:xlink="http://www.w3.org/1999/xlink" width="500" zoomAndPan="magnify" viewBox="0 0 375 374.999991" height="500" preserveAspectRatio="xMidYMid meet" version="1.0"><defs><clipPath id="05cbc6b935"><path d="M 77.996094 106.261719 L 310.171875 106.261719 L 310.171875 268.828125 L 77.996094 268.828125 Z M 77.996094 106.261719 " clip-rule="nonzero"/></clipPath></defs><path fill="#f8b701" d="M 153.871094 138.402344 L 153.871094 165.417969 C 155.265625 165.417969 157.125 164.953125 158.523438 164.019531 C 159.917969 163.089844 161.3125 161.691406 162.707031 159.828125 L 163.175781 158.898438 L 164.105469 159.828125 L 166.894531 162.15625 C 167.828125 160.292969 168.292969 157.964844 168.292969 155.171875 C 168.292969 152.375 167.828125 149.582031 166.429688 147.253906 C 165.035156 144.457031 162.707031 142.59375 160.382812 140.730469 C 158.523438 139.332031 156.195312 138.867188 153.871094 138.402344 Z M 153.871094 138.402344 " fill-opacity="1" fill-rule="evenodd"/><path fill="#459a61" d="M 114.324219 188.710938 C 108.277344 196.164062 103.625 210.601562 101.296875 237.152344 C 105.949219 235.757812 110.136719 234.359375 114.324219 232.960938 L 116.648438 232.03125 C 118.976562 230.632812 120.835938 229.699219 123.164062 228.769531 C 126.421875 227.371094 129.210938 225.507812 131.539062 224.109375 C 132.003906 223.644531 132.003906 223.644531 132.46875 223.644531 C 139.445312 218.988281 144.5625 214.328125 147.355469 208.738281 C 152.007812 201.285156 152.9375 192.902344 150.148438 183.585938 C 149.21875 180.789062 148.285156 178.460938 146.890625 175.667969 C 144.097656 170.542969 143.632812 170.078125 142.238281 169.609375 C 141.308594 169.144531 139.910156 168.679688 137.585938 166.816406 C 134.792969 164.953125 132.933594 162.15625 132.003906 159.363281 C 130.605469 156.566406 130.140625 153.308594 131.074219 150.046875 C 131.074219 150.046875 131.074219 149.582031 131.074219 149.582031 C 130.140625 144.921875 131.539062 140.265625 134.792969 137.003906 C 137.121094 133.742188 140.84375 131.878906 145.03125 131.878906 C 143.632812 129.550781 142.238281 127.222656 141.308594 125.359375 C 140.378906 123.496094 139.910156 121.632812 139.445312 120.234375 C 138.980469 120.699219 138.515625 121.632812 138.515625 122.097656 C 138.050781 123.960938 138.050781 125.359375 138.980469 127.222656 L 140.84375 130.949219 L 137.121094 128.621094 C 134.328125 126.757812 132.003906 124.894531 129.675781 122.5625 C 128.28125 121.167969 126.886719 119.769531 125.953125 117.90625 C 125.488281 119.304688 125.488281 120.699219 125.488281 122.097656 C 125.488281 124.425781 126.421875 126.757812 127.351562 129.085938 L 128.746094 132.347656 L 125.488281 130.484375 C 122.699219 129.085938 119.90625 127.6875 117.582031 125.359375 C 115.71875 124.425781 113.859375 122.5625 112.464844 121.167969 C 112.464844 123.496094 112.929688 125.824219 113.859375 128.152344 C 115.253906 130.949219 117.582031 133.742188 120.371094 135.605469 L 125.023438 138.867188 L 119.441406 137.9375 L 109.207031 136.074219 C 110.136719 138.402344 111.53125 140.265625 112.929688 141.664062 C 115.253906 143.992188 117.582031 145.855469 120.371094 147.253906 L 121.300781 148.183594 L 120.371094 149.117188 C 118.511719 151.910156 117.582031 163.089844 116.648438 181.722656 C 121.300781 177.996094 125.953125 177.0625 129.675781 175.667969 C 133.398438 174.734375 136.65625 173.804688 138.515625 171.007812 C 138.515625 170.078125 139.445312 170.078125 139.910156 170.542969 C 140.84375 170.542969 140.84375 171.472656 140.378906 171.941406 C 138.515625 175.667969 134.792969 177.0625 130.605469 177.996094 C 126.421875 179.394531 121.300781 180.789062 116.648438 185.449219 C 115.71875 186.378906 114.789062 187.3125 114.324219 188.710938 Z M 131.074219 227.371094 C 128.746094 228.769531 126.886719 229.699219 124.09375 231.097656 C 121.769531 232.03125 119.441406 233.425781 116.648438 234.359375 C 116.648438 242.742188 117.117188 252.058594 117.117188 261.839844 C 120.835938 256.71875 123.628906 251.59375 125.953125 246.003906 C 128.746094 239.949219 130.140625 233.894531 131.074219 227.371094 Z M 131.074219 227.371094 " fill-opacity="1" fill-rule="evenodd"/><g clip-path="url(#05cbc6b935)"><path fill="#333632" d="M 131.074219 222.714844 C 131.074219 222.246094 131.539062 222.246094 131.539062 222.246094 C 138.980469 217.589844 144.097656 212 147.355469 206.410156 C 152.007812 198.957031 152.9375 190.105469 149.683594 180.324219 C 149.21875 177.53125 147.820312 175.199219 146.425781 171.941406 C 144.097656 166.816406 143.167969 166.351562 141.773438 165.882812 C 140.84375 165.417969 139.445312 164.953125 136.65625 163.089844 C 134.328125 161.226562 132.003906 158.429688 131.074219 155.171875 C 129.675781 152.375 129.675781 149.117188 130.140625 145.855469 C 131.074219 141.195312 133.398438 137.003906 137.121094 134.210938 C 139.910156 132.347656 143.632812 130.949219 147.355469 130.949219 C 144.5625 126.757812 142.238281 123.03125 140.84375 120.234375 C 139.910156 117.90625 139.445312 116.042969 138.980469 114.644531 C 138.515625 115.578125 138.050781 116.042969 138.050781 116.972656 C 137.585938 118.371094 137.585938 120.234375 138.515625 121.632812 L 140.378906 125.824219 L 136.65625 123.496094 C 133.398438 121.167969 131.074219 119.304688 128.746094 116.972656 C 127.351562 115.578125 125.953125 113.714844 125.023438 112.316406 C 124.558594 113.714844 124.558594 115.109375 124.558594 116.507812 C 124.558594 119.304688 125.023438 121.632812 126.421875 123.496094 L 127.816406 127.222656 L 124.558594 125.359375 C 121.769531 123.960938 118.511719 122.097656 116.183594 120.234375 C 114.324219 118.835938 112.464844 117.441406 111.066406 115.578125 C 111.066406 117.90625 111.53125 120.699219 112.464844 122.5625 C 113.859375 125.824219 116.183594 128.621094 118.976562 130.484375 L 124.09375 134.210938 L 118.046875 132.8125 L 107.34375 131.414062 C 108.742188 133.277344 109.671875 135.140625 111.53125 137.003906 C 113.394531 139.332031 116.183594 141.195312 118.976562 143.058594 L 120.371094 143.527344 L 119.441406 144.921875 C 117.582031 147.71875 116.183594 158.898438 115.253906 178.925781 C 119.90625 174.734375 125.023438 173.335938 128.746094 172.40625 C 132.933594 171.007812 136.191406 170.078125 138.050781 167.28125 C 138.050781 166.816406 138.980469 166.351562 139.445312 166.816406 C 140.378906 167.28125 140.378906 167.746094 139.910156 168.679688 C 138.050781 172.40625 134.328125 173.335938 129.675781 174.734375 C 125.488281 176.132812 120.371094 177.53125 115.253906 182.652344 C 114.324219 183.585938 113.394531 184.515625 112.464844 185.449219 C 106.878906 193.832031 101.761719 208.273438 99.4375 236.222656 C 104.089844 234.824219 108.742188 233.425781 112.464844 231.5625 C 113.394531 231.097656 114.324219 231.097656 115.253906 230.632812 C 117.582031 229.699219 119.90625 228.769531 121.769531 227.371094 C 125.023438 225.972656 128.28125 224.109375 131.074219 222.714844 Z M 145.03125 145.390625 C 145.03125 143.058594 143.167969 141.664062 141.308594 141.664062 C 138.980469 141.664062 137.585938 143.058594 137.585938 145.390625 C 137.585938 147.71875 138.980469 149.117188 141.308594 149.117188 C 143.167969 149.117188 145.03125 147.71875 145.03125 145.390625 Z M 132.933594 225.507812 C 132.003906 232.496094 130.140625 239.484375 127.351562 246.003906 C 124.558594 253.457031 120.371094 259.976562 115.71875 266.035156 L 113.394531 268.828125 L 113.394531 265.566406 C 112.929688 254.386719 112.929688 244.140625 112.464844 234.359375 C 108.277344 236.222656 103.625 237.621094 98.507812 239.484375 L 96.644531 239.949219 L 96.644531 238.085938 C 97.109375 233.425781 97.574219 229.234375 98.039062 225.507812 L 75.242188 225.507812 C 74.3125 225.507812 73.847656 225.042969 73.847656 224.109375 C 73.847656 223.644531 74.3125 222.714844 75.242188 222.714844 L 98.039062 222.714844 C 101.296875 199.886719 106.878906 187.777344 112.929688 181.257812 C 112.929688 180.789062 112.929688 179.859375 112.929688 179.394531 C 113.394531 160.761719 114.789062 149.117188 116.648438 144.457031 C 113.859375 143.058594 111.53125 141.195312 109.671875 138.867188 C 107.34375 136.074219 105.484375 133.277344 104.089844 130.015625 L 103.160156 127.6875 L 105.484375 128.152344 L 113.859375 129.550781 C 111.996094 128.152344 111.066406 125.824219 110.136719 123.960938 C 108.277344 120.234375 107.8125 116.042969 108.742188 112.316406 L 109.207031 109.519531 L 111.066406 111.382812 C 112.929688 114.179688 115.253906 116.042969 117.582031 118.371094 C 119.441406 119.304688 120.835938 120.234375 122.699219 121.632812 C 122.234375 119.769531 121.769531 118.371094 121.769531 116.972656 C 121.769531 114.179688 122.234375 111.382812 123.164062 108.589844 L 124.09375 106.261719 L 125.488281 108.589844 C 126.886719 110.917969 128.746094 113.246094 130.605469 115.109375 C 132.003906 116.507812 133.398438 117.90625 135.257812 119.304688 C 135.257812 118.371094 135.257812 116.972656 135.257812 116.042969 C 136.191406 114.179688 137.121094 111.851562 138.980469 110.453125 L 141.773438 108.589844 L 141.308594 111.851562 C 140.84375 113.246094 141.773438 115.578125 143.167969 118.835938 C 145.03125 122.097656 147.355469 126.289062 150.613281 130.949219 C 154.335938 131.414062 157.589844 132.8125 160.382812 134.675781 C 163.640625 136.539062 166.429688 139.332031 168.292969 143.058594 C 170.152344 146.320312 171.082031 150.046875 171.082031 153.773438 C 171.082031 157.5 170.152344 161.226562 168.292969 164.488281 L 167.828125 166.351562 L 166.429688 164.953125 L 162.707031 161.691406 C 161.3125 163.554688 159.917969 164.953125 158.054688 165.882812 C 155.730469 167.28125 152.9375 168.214844 150.148438 168.214844 L 148.75 168.214844 L 148.75 133.277344 C 145.03125 133.277344 141.308594 134.210938 138.515625 136.539062 C 135.726562 138.867188 133.398438 142.128906 132.46875 146.320312 C 132.003906 149.117188 132.46875 151.910156 133.398438 154.238281 C 134.328125 157.035156 136.191406 159.363281 138.515625 161.226562 C 140.378906 162.625 141.773438 163.089844 142.703125 163.554688 C 145.03125 164.488281 145.960938 164.488281 148.75 171.007812 C 150.148438 173.804688 151.542969 177.0625 152.472656 179.859375 C 155.730469 190.105469 154.800781 199.421875 149.683594 207.808594 C 146.425781 213.398438 141.773438 218.519531 135.257812 222.714844 L 312.980469 222.714844 C 313.910156 222.714844 314.375 223.644531 314.375 224.109375 C 314.375 225.042969 313.910156 225.507812 312.980469 225.507812 Z M 125.023438 245.070312 C 127.816406 239.015625 129.210938 232.496094 130.140625 225.972656 C 128.28125 227.371094 125.488281 228.769531 123.164062 229.699219 C 120.835938 231.097656 118.046875 232.496094 115.253906 233.425781 C 115.253906 242.277344 115.71875 251.59375 115.71875 261.839844 C 119.441406 256.71875 122.699219 251.128906 125.023438 245.070312 Z M 151.542969 133.742188 L 151.078125 133.742188 L 151.078125 165.417969 C 153.402344 165.417969 155.265625 164.488281 156.660156 163.554688 C 158.523438 162.625 160.382812 160.761719 161.777344 158.898438 L 162.707031 157.5 L 163.640625 158.898438 L 166.894531 161.691406 C 167.828125 159.363281 168.292969 156.566406 168.292969 153.773438 C 168.292969 150.511719 167.359375 147.253906 165.964844 143.992188 C 164.105469 141.195312 161.777344 138.867188 158.988281 137.003906 C 156.660156 135.140625 154.335938 134.210938 151.542969 133.742188 Z M 151.542969 133.742188 " fill-opacity="1" fill-rule="nonzero"/></g></svg>