<svg xmlns="http://www.w3.org/2000/svg" xmlns:xlink="http://www.w3.org/1999/xlink" width="500" zoomAndPan="magnify" viewBox="0 0 375 374.999991" height="500" preserveAspectRatio="xMidYMid meet" version="1.0"><defs><g/><clipPath id="8a2f55a0b0"><path d="M 63.441406 106.261719 L 311.78125 106.261719 L 311.78125 268.828125 L 63.441406 268.828125 Z M 63.441406 106.261719 " clip-rule="nonzero"/></clipPath></defs><path fill="#f8b701" d="M 146.089844 136.933594 L 146.089844 164.773438 C 147.53125 164.773438 149.449219 164.292969 150.890625 163.332031 C 152.332031 162.375 153.769531 160.933594 155.210938 159.011719 L 155.691406 158.054688 L 156.652344 159.011719 L 159.53125 161.414062 C 160.492188 159.492188 160.972656 157.09375 160.972656 154.214844 C 160.972656 151.335938 160.492188 148.453125 159.050781 146.054688 C 157.609375 143.175781 155.210938 141.253906 152.8125 139.335938 C 150.890625 137.894531 148.492188 137.414062 146.089844 136.933594 Z M 146.089844 136.933594 " fill-opacity="1" fill-rule="evenodd"/><path fill="#459a61" d="M 105.292969 188.769531 C 99.050781 196.449219 94.25 211.328125 91.851562 238.6875 C 96.652344 237.246094 100.972656 235.808594 105.292969 234.367188 L 107.691406 233.40625 C 110.089844 231.96875 112.011719 231.007812 114.410156 230.046875 C 117.769531 228.609375 120.652344 226.6875 123.050781 225.25 C 123.53125 224.769531 123.53125 224.769531 124.011719 224.769531 C 131.210938 219.96875 136.492188 215.167969 139.371094 209.410156 C 144.171875 201.730469 145.132812 193.089844 142.25 183.492188 C 141.292969 180.613281 140.332031 178.210938 138.890625 175.332031 C 136.011719 170.050781 135.53125 169.574219 134.089844 169.09375 C 133.132812 168.613281 131.691406 168.132812 129.292969 166.214844 C 126.410156 164.292969 124.492188 161.414062 123.53125 158.535156 C 122.089844 155.652344 121.609375 152.292969 122.570312 148.933594 C 122.570312 148.933594 122.570312 148.453125 122.570312 148.453125 C 121.609375 143.65625 123.050781 138.855469 126.410156 135.496094 C 128.8125 132.136719 132.652344 130.214844 136.972656 130.214844 C 135.53125 127.816406 134.089844 125.414062 133.132812 123.496094 C 132.171875 121.578125 131.691406 119.65625 131.210938 118.214844 C 130.730469 118.695312 130.25 119.65625 130.25 120.136719 C 129.769531 122.054688 129.769531 123.496094 130.730469 125.414062 L 132.652344 129.253906 L 128.8125 126.855469 C 125.929688 124.9375 123.53125 123.015625 121.132812 120.617188 C 119.691406 119.175781 118.25 117.738281 117.292969 115.816406 C 116.8125 117.257812 116.8125 118.695312 116.8125 120.136719 C 116.8125 122.535156 117.769531 124.9375 118.730469 127.335938 L 120.171875 130.695312 L 116.8125 128.777344 C 113.929688 127.335938 111.050781 125.894531 108.652344 123.496094 C 106.730469 122.535156 104.8125 120.617188 103.371094 119.175781 C 103.371094 121.578125 103.851562 123.976562 104.8125 126.375 C 106.25 129.253906 108.652344 132.136719 111.53125 134.054688 L 116.332031 137.414062 L 110.570312 136.457031 L 100.011719 134.535156 C 100.972656 136.933594 102.410156 138.855469 103.851562 140.292969 C 106.25 142.695312 108.652344 144.613281 111.53125 146.054688 L 112.492188 147.015625 L 111.53125 147.972656 C 109.613281 150.855469 108.652344 162.375 107.691406 181.570312 C 112.492188 177.730469 117.292969 176.773438 121.132812 175.332031 C 124.972656 174.371094 128.332031 173.414062 130.25 170.53125 C 130.25 169.574219 131.210938 169.574219 131.691406 170.050781 C 132.652344 170.050781 132.652344 171.011719 132.171875 171.492188 C 130.25 175.332031 126.410156 176.773438 122.089844 177.730469 C 117.769531 179.171875 112.492188 180.613281 107.691406 185.410156 C 106.730469 186.371094 105.769531 187.332031 105.292969 188.769531 Z M 122.570312 228.609375 C 120.171875 230.046875 118.25 231.007812 115.371094 232.449219 C 112.972656 233.40625 110.570312 234.847656 107.691406 235.808594 C 107.691406 244.445312 108.171875 254.046875 108.171875 264.125 C 112.011719 258.847656 114.890625 253.566406 117.292969 247.808594 C 120.171875 241.566406 121.609375 235.328125 122.570312 228.609375 Z M 122.570312 228.609375 " fill-opacity="1" fill-rule="evenodd"/><g clip-path="url(#8a2f55a0b0)"><path fill="#333632" d="M 122.570312 223.808594 C 122.570312 223.328125 123.050781 223.328125 123.050781 223.328125 C 130.730469 218.527344 136.011719 212.769531 139.371094 207.011719 C 144.171875 199.332031 145.132812 190.210938 141.769531 180.132812 C 141.292969 177.253906 139.851562 174.851562 138.410156 171.492188 C 136.011719 166.214844 135.050781 165.734375 133.609375 165.253906 C 132.652344 164.773438 131.210938 164.292969 128.332031 162.375 C 125.929688 160.453125 123.53125 157.574219 122.570312 154.214844 C 121.132812 151.335938 121.132812 147.972656 121.609375 144.613281 C 122.570312 139.816406 124.972656 135.496094 128.8125 132.617188 C 131.691406 130.695312 135.53125 129.253906 139.371094 129.253906 C 136.492188 124.9375 134.089844 121.097656 132.652344 118.214844 C 131.691406 115.816406 131.210938 113.898438 130.730469 112.457031 C 130.25 113.417969 129.769531 113.898438 129.769531 114.855469 C 129.292969 116.296875 129.292969 118.214844 130.25 119.65625 L 132.171875 123.976562 L 128.332031 121.578125 C 124.972656 119.175781 122.570312 117.257812 120.171875 114.855469 C 118.730469 113.417969 117.292969 111.496094 116.332031 110.058594 C 115.851562 111.496094 115.851562 112.9375 115.851562 114.375 C 115.851562 117.257812 116.332031 119.65625 117.769531 121.578125 L 119.210938 125.414062 L 115.851562 123.496094 C 112.972656 122.054688 109.613281 120.136719 107.210938 118.214844 C 105.292969 116.777344 103.371094 115.335938 101.929688 113.417969 C 101.929688 115.816406 102.410156 118.695312 103.371094 120.617188 C 104.8125 123.976562 107.210938 126.855469 110.089844 128.777344 L 115.371094 132.617188 L 109.132812 131.175781 L 98.089844 129.734375 C 99.53125 131.65625 100.492188 133.574219 102.410156 135.496094 C 104.332031 137.894531 107.210938 139.816406 110.089844 141.734375 L 111.53125 142.214844 L 110.570312 143.65625 C 108.652344 146.535156 107.210938 158.054688 106.25 178.691406 C 111.050781 174.371094 116.332031 172.933594 120.171875 171.972656 C 124.492188 170.53125 127.851562 169.574219 129.769531 166.691406 C 129.769531 166.214844 130.730469 165.734375 131.210938 166.214844 C 132.171875 166.691406 132.171875 167.171875 131.691406 168.132812 C 129.769531 171.972656 125.929688 172.933594 121.132812 174.371094 C 116.8125 175.8125 111.53125 177.253906 106.25 182.53125 C 105.292969 183.492188 104.332031 184.453125 103.371094 185.410156 C 97.613281 194.050781 92.332031 208.929688 89.929688 237.726562 C 94.730469 236.289062 99.53125 234.847656 103.371094 232.929688 C 104.332031 232.449219 105.292969 232.449219 106.25 231.96875 C 108.652344 231.007812 111.050781 230.046875 112.972656 228.609375 C 116.332031 227.167969 119.691406 225.25 122.570312 223.808594 Z M 136.972656 144.132812 C 136.972656 141.734375 135.050781 140.292969 133.132812 140.292969 C 130.730469 140.292969 129.292969 141.734375 129.292969 144.132812 C 129.292969 146.535156 130.730469 147.972656 133.132812 147.972656 C 135.050781 147.972656 136.972656 146.535156 136.972656 144.132812 Z M 124.492188 226.6875 C 123.53125 233.886719 121.609375 241.085938 118.730469 247.808594 C 115.851562 255.488281 111.53125 262.207031 106.730469 268.445312 L 104.332031 271.324219 L 104.332031 267.964844 C 103.851562 256.445312 103.851562 245.886719 103.371094 235.808594 C 99.050781 237.726562 94.25 239.167969 88.972656 241.085938 L 87.050781 241.566406 L 87.050781 239.648438 C 87.53125 234.847656 88.011719 230.527344 88.492188 226.6875 L 64.972656 226.6875 C 64.011719 226.6875 63.53125 226.207031 63.53125 225.25 C 63.53125 224.769531 64.011719 223.808594 64.972656 223.808594 L 88.492188 223.808594 C 91.851562 200.289062 97.613281 187.8125 103.851562 181.09375 C 103.851562 180.613281 103.851562 179.652344 103.851562 179.171875 C 104.332031 159.972656 105.769531 147.972656 107.691406 143.175781 C 104.8125 141.734375 102.410156 139.816406 100.492188 137.414062 C 98.089844 134.535156 96.171875 131.65625 94.730469 128.296875 L 93.773438 125.894531 L 96.171875 126.375 L 104.8125 127.816406 C 102.890625 126.375 101.929688 123.976562 100.972656 122.054688 C 99.050781 118.214844 98.570312 113.898438 99.53125 110.058594 L 100.011719 107.175781 L 101.929688 109.097656 C 103.851562 111.976562 106.25 113.898438 108.652344 116.296875 C 110.570312 117.257812 112.011719 118.214844 113.929688 119.65625 C 113.453125 117.738281 112.972656 116.296875 112.972656 114.855469 C 112.972656 111.976562 113.453125 109.097656 114.410156 106.21875 L 115.371094 103.816406 L 116.8125 106.21875 C 118.25 108.617188 120.171875 111.015625 122.089844 112.9375 C 123.53125 114.375 124.972656 115.816406 126.890625 117.257812 C 126.890625 116.296875 126.890625 114.855469 126.890625 113.898438 C 127.851562 111.976562 128.8125 109.578125 130.730469 108.136719 L 133.609375 106.21875 L 133.132812 109.578125 C 132.652344 111.015625 133.609375 113.417969 135.050781 116.777344 C 136.972656 120.136719 139.371094 124.457031 142.730469 129.253906 C 146.570312 129.734375 149.929688 131.175781 152.8125 133.09375 C 156.171875 135.015625 159.050781 137.894531 160.972656 141.734375 C 162.890625 145.09375 163.851562 148.933594 163.851562 152.773438 C 163.851562 156.613281 162.890625 160.453125 160.972656 163.8125 L 160.492188 165.734375 L 159.050781 164.292969 L 155.210938 160.933594 C 153.769531 162.851562 152.332031 164.292969 150.410156 165.253906 C 148.011719 166.691406 145.132812 167.652344 142.25 167.652344 L 140.8125 167.652344 L 140.8125 131.65625 C 136.972656 131.65625 133.132812 132.617188 130.25 135.015625 C 127.371094 137.414062 124.972656 140.773438 124.011719 145.09375 C 123.53125 147.972656 124.011719 150.855469 124.972656 153.253906 C 125.929688 156.132812 127.851562 158.535156 130.25 160.453125 C 132.171875 161.894531 133.609375 162.375 134.570312 162.851562 C 136.972656 163.8125 137.929688 163.8125 140.8125 170.53125 C 142.25 173.414062 143.691406 176.773438 144.652344 179.652344 C 148.011719 190.210938 147.050781 199.808594 141.769531 208.449219 C 138.410156 214.210938 133.609375 219.488281 126.890625 223.808594 L 310.25 223.808594 C 311.210938 223.808594 311.691406 224.769531 311.691406 225.25 C 311.691406 226.207031 311.210938 226.6875 310.25 226.6875 Z M 116.332031 246.847656 C 119.210938 240.609375 120.652344 233.886719 121.609375 227.167969 C 119.691406 228.609375 116.8125 230.046875 114.410156 231.007812 C 112.011719 232.449219 109.132812 233.886719 106.25 234.847656 C 106.25 243.96875 106.730469 253.566406 106.730469 264.125 C 110.570312 258.847656 113.929688 253.085938 116.332031 246.847656 Z M 143.691406 132.136719 L 143.210938 132.136719 L 143.210938 164.773438 C 145.609375 164.773438 147.53125 163.8125 148.972656 162.851562 C 150.890625 161.894531 152.8125 159.972656 154.25 158.054688 L 155.210938 156.613281 L 156.171875 158.054688 L 159.53125 160.933594 C 160.492188 158.535156 160.972656 155.652344 160.972656 152.773438 C 160.972656 149.414062 160.011719 146.054688 158.570312 142.695312 C 156.652344 139.816406 154.25 137.414062 151.371094 135.496094 C 148.972656 133.574219 146.570312 132.617188 143.691406 132.136719 Z M 143.691406 132.136719 " fill-opacity="1" fill-rule="nonzero"/></g><g fill="#000000" fill-opacity="1"><g transform="translate(173.301291, 213.918941)"><g><path d="M 0 -11.609375 C 0 -11.816406 0.0390625 -12.003906 0.125 -12.171875 C 0.207031 -12.347656 0.375 -12.4375 0.625 -12.4375 C 0.820312 -12.4375 1.019531 -12.222656 1.21875 -11.796875 C 1.425781 -11.378906 1.632812 -10.835938 1.84375 -10.171875 C 2.050781 -9.515625 2.269531 -8.789062 2.5 -8 C 2.738281 -7.207031 2.984375 -6.441406 3.234375 -5.703125 C 3.492188 -4.960938 3.765625 -4.296875 4.046875 -3.703125 C 4.328125 -3.117188 4.628906 -2.710938 4.953125 -2.484375 C 5.265625 -2.617188 5.515625 -2.847656 5.703125 -3.171875 C 5.890625 -3.503906 6.039062 -3.894531 6.15625 -4.34375 C 6.269531 -4.800781 6.351562 -5.296875 6.40625 -5.828125 C 6.46875 -6.367188 6.523438 -6.90625 6.578125 -7.4375 C 6.640625 -7.96875 6.703125 -8.488281 6.765625 -9 C 6.828125 -9.507812 6.921875 -9.957031 7.046875 -10.34375 C 7.171875 -10.726562 7.328125 -11.035156 7.515625 -11.265625 C 7.710938 -11.492188 7.957031 -11.609375 8.25 -11.609375 C 8.4375 -11.609375 8.597656 -11.59375 8.734375 -11.5625 C 8.878906 -11.53125 9.003906 -11.398438 9.109375 -11.171875 C 9.160156 -11.003906 9.242188 -10.757812 9.359375 -10.4375 C 9.472656 -10.113281 9.601562 -9.738281 9.75 -9.3125 C 9.894531 -8.882812 10.0625 -8.429688 10.25 -7.953125 C 10.4375 -7.472656 10.628906 -7 10.828125 -6.53125 C 11.023438 -6.070312 11.21875 -5.632812 11.40625 -5.21875 C 11.601562 -4.800781 11.796875 -4.441406 11.984375 -4.140625 C 12.003906 -4.085938 12.066406 -4.003906 12.171875 -3.890625 C 12.285156 -3.785156 12.363281 -3.726562 12.40625 -3.71875 L 13.234375 -4.546875 C 13.453125 -4.765625 13.617188 -5.085938 13.734375 -5.515625 C 13.847656 -5.953125 13.929688 -6.453125 13.984375 -7.015625 C 14.046875 -7.585938 14.085938 -8.195312 14.109375 -8.84375 C 14.128906 -9.488281 14.144531 -10.132812 14.15625 -10.78125 C 14.164062 -11.425781 14.191406 -12.050781 14.234375 -12.65625 C 14.273438 -13.257812 14.335938 -13.785156 14.421875 -14.234375 C 14.515625 -14.691406 14.644531 -15.054688 14.8125 -15.328125 C 14.976562 -15.597656 15.207031 -15.734375 15.5 -15.734375 C 15.519531 -15.734375 15.535156 -15.726562 15.546875 -15.71875 C 15.566406 -15.71875 15.59375 -15.71875 15.625 -15.71875 C 15.664062 -15.707031 15.691406 -15.703125 15.703125 -15.703125 C 15.710938 -15.703125 15.742188 -15.675781 15.796875 -15.625 C 15.847656 -15.582031 15.894531 -15.539062 15.9375 -15.5 C 15.988281 -15.46875 16.03125 -15.429688 16.0625 -15.390625 C 16.09375 -15.347656 16.113281 -15.316406 16.125 -15.296875 C 16.125 -15.203125 16.125 -15.039062 16.125 -14.8125 C 16.132812 -14.582031 16.140625 -14.332031 16.140625 -14.0625 C 16.140625 -13.789062 16.140625 -13.535156 16.140625 -13.296875 C 16.148438 -13.054688 16.15625 -12.894531 16.15625 -12.8125 C 16.15625 -12.550781 16.148438 -12.195312 16.140625 -11.75 C 16.140625 -11.300781 16.125 -10.789062 16.09375 -10.21875 C 16.0625 -9.644531 16.015625 -9.03125 15.953125 -8.375 C 15.898438 -7.726562 15.816406 -7.085938 15.703125 -6.453125 C 15.585938 -5.816406 15.441406 -5.203125 15.265625 -4.609375 C 15.085938 -4.023438 14.875 -3.507812 14.625 -3.0625 C 14.375 -2.625 14.082031 -2.273438 13.75 -2.015625 C 13.425781 -1.753906 13.039062 -1.625 12.59375 -1.625 C 12.15625 -1.625 11.785156 -1.765625 11.484375 -2.046875 C 11.179688 -2.335938 10.921875 -2.695312 10.703125 -3.125 C 10.484375 -3.5625 10.296875 -4.03125 10.140625 -4.53125 C 9.984375 -5.039062 9.828125 -5.515625 9.671875 -5.953125 C 9.515625 -6.390625 9.34375 -6.753906 9.15625 -7.046875 C 8.96875 -7.335938 8.738281 -7.484375 8.46875 -7.484375 C 8.4375 -7.484375 8.398438 -7.472656 8.359375 -7.453125 C 8.316406 -7.441406 8.28125 -7.4375 8.25 -7.4375 C 8.238281 -7.394531 8.203125 -7.171875 8.140625 -6.765625 C 8.078125 -6.367188 7.988281 -5.894531 7.875 -5.34375 C 7.757812 -4.800781 7.613281 -4.210938 7.4375 -3.578125 C 7.269531 -2.953125 7.082031 -2.375 6.875 -1.84375 C 6.664062 -1.320312 6.4375 -0.882812 6.1875 -0.53125 C 5.9375 -0.175781 5.660156 0 5.359375 0 C 4.753906 0 4.203125 -0.226562 3.703125 -0.6875 C 3.203125 -1.144531 2.753906 -1.734375 2.359375 -2.453125 C 1.972656 -3.179688 1.628906 -3.988281 1.328125 -4.875 C 1.035156 -5.757812 0.789062 -6.628906 0.59375 -7.484375 C 0.394531 -8.347656 0.242188 -9.148438 0.140625 -9.890625 C 0.046875 -10.628906 0 -11.203125 0 -11.609375 Z M 0 -11.609375 "/></g></g></g><g fill="#000000" fill-opacity="1"><g transform="translate(198.271725, 213.918941)"><g><path d="M 0.390625 -3.921875 C 0.390625 -4.710938 0.570312 -5.453125 0.9375 -6.140625 C 1.3125 -6.828125 1.804688 -7.414062 2.421875 -7.90625 C 3.035156 -8.40625 3.722656 -8.796875 4.484375 -9.078125 C 5.242188 -9.367188 6.019531 -9.515625 6.8125 -9.515625 C 7.25 -9.515625 7.632812 -9.367188 7.96875 -9.078125 C 8.3125 -8.796875 8.597656 -8.453125 8.828125 -8.046875 C 9.066406 -7.640625 9.242188 -7.210938 9.359375 -6.765625 C 9.484375 -6.316406 9.546875 -5.925781 9.546875 -5.59375 C 9.546875 -4.875 9.367188 -4.175781 9.015625 -3.5 C 8.671875 -2.820312 8.222656 -2.222656 7.671875 -1.703125 C 7.117188 -1.179688 6.492188 -0.757812 5.796875 -0.4375 C 5.109375 -0.125 4.414062 0.03125 3.71875 0.03125 C 3.101562 0.03125 2.582031 -0.0703125 2.15625 -0.28125 C 1.738281 -0.488281 1.398438 -0.769531 1.140625 -1.125 C 0.878906 -1.476562 0.6875 -1.894531 0.5625 -2.375 C 0.445312 -2.863281 0.390625 -3.378906 0.390625 -3.921875 Z M 2.03125 -3.71875 C 2.03125 -3.382812 2.054688 -3.09375 2.109375 -2.84375 C 2.171875 -2.59375 2.273438 -2.375 2.421875 -2.1875 C 2.566406 -2.007812 2.757812 -1.875 3 -1.78125 C 3.25 -1.6875 3.554688 -1.640625 3.921875 -1.640625 C 4.390625 -1.640625 4.863281 -1.769531 5.34375 -2.03125 C 5.820312 -2.300781 6.25 -2.632812 6.625 -3.03125 C 7 -3.4375 7.300781 -3.882812 7.53125 -4.375 C 7.769531 -4.863281 7.890625 -5.34375 7.890625 -5.8125 C 7.890625 -6.007812 7.867188 -6.226562 7.828125 -6.46875 C 7.785156 -6.71875 7.71875 -6.945312 7.625 -7.15625 C 7.539062 -7.363281 7.414062 -7.535156 7.25 -7.671875 C 7.082031 -7.816406 6.867188 -7.890625 6.609375 -7.890625 C 6.378906 -7.890625 6.109375 -7.8125 5.796875 -7.65625 C 5.484375 -7.5 5.15625 -7.296875 4.8125 -7.046875 C 4.46875 -6.804688 4.128906 -6.53125 3.796875 -6.21875 C 3.472656 -5.914062 3.175781 -5.609375 2.90625 -5.296875 C 2.632812 -4.992188 2.421875 -4.703125 2.265625 -4.421875 C 2.109375 -4.140625 2.03125 -3.90625 2.03125 -3.71875 Z M 2.03125 -3.71875 "/></g></g></g><g fill="#000000" fill-opacity="1"><g transform="translate(216.223041, 213.918941)"><g><path d="M 0.84375 -10.921875 C 0.84375 -11.285156 0.816406 -11.644531 0.765625 -12 C 0.710938 -12.351562 0.695312 -12.664062 0.71875 -12.9375 C 0.75 -13.21875 0.851562 -13.441406 1.03125 -13.609375 C 1.207031 -13.785156 1.523438 -13.875 1.984375 -13.875 C 2.128906 -13.570312 2.269531 -13.117188 2.40625 -12.515625 C 2.539062 -11.910156 2.671875 -11.21875 2.796875 -10.4375 C 2.921875 -9.65625 3.039062 -8.800781 3.15625 -7.875 C 3.28125 -6.957031 3.390625 -6.035156 3.484375 -5.109375 C 3.578125 -4.179688 3.660156 -3.269531 3.734375 -2.375 C 3.804688 -1.488281 3.859375 -0.675781 3.890625 0.0625 C 3.472656 0.34375 3.132812 0.359375 2.875 0.109375 C 2.613281 -0.128906 2.398438 -0.539062 2.234375 -1.125 C 2.066406 -1.707031 1.9375 -2.421875 1.84375 -3.265625 C 1.757812 -4.109375 1.675781 -4.984375 1.59375 -5.890625 C 1.507812 -6.796875 1.410156 -7.6875 1.296875 -8.5625 C 1.179688 -9.445312 1.03125 -10.234375 0.84375 -10.921875 Z M 0.84375 -10.921875 "/></g></g></g><g fill="#000000" fill-opacity="1"><g transform="translate(228.775035, 213.918941)"><g><path d="M 1.203125 -7.234375 C 1.203125 -7.304688 1.203125 -7.429688 1.203125 -7.609375 C 1.210938 -7.785156 1.21875 -7.96875 1.21875 -8.15625 C 1.226562 -8.351562 1.234375 -8.539062 1.234375 -8.71875 C 1.242188 -8.894531 1.25 -9.023438 1.25 -9.109375 C 1.394531 -9.304688 1.578125 -9.46875 1.796875 -9.59375 C 2.023438 -9.726562 2.253906 -9.832031 2.484375 -9.90625 C 2.523438 -9.21875 2.632812 -8.476562 2.8125 -7.6875 C 3 -6.90625 3.191406 -6.117188 3.390625 -5.328125 C 3.597656 -4.535156 3.78125 -3.753906 3.9375 -2.984375 C 4.101562 -2.210938 4.1875 -1.492188 4.1875 -0.828125 C 4.1875 -0.253906 3.890625 0.03125 3.296875 0.03125 C 2.941406 0.03125 2.640625 -0.113281 2.390625 -0.40625 C 2.148438 -0.695312 1.953125 -1.070312 1.796875 -1.53125 C 1.648438 -1.988281 1.53125 -2.492188 1.4375 -3.046875 C 1.351562 -3.609375 1.296875 -4.160156 1.265625 -4.703125 C 1.234375 -5.242188 1.210938 -5.738281 1.203125 -6.1875 C 1.203125 -6.632812 1.203125 -6.984375 1.203125 -7.234375 Z M 1.46875 -14.46875 C 1.707031 -14.363281 1.910156 -14.191406 2.078125 -13.953125 C 2.242188 -13.722656 2.316406 -13.515625 2.296875 -13.328125 C 2.285156 -13.148438 2.144531 -13.023438 1.875 -12.953125 C 1.601562 -12.878906 1.148438 -12.953125 0.515625 -13.171875 C 0.515625 -13.515625 0.582031 -13.816406 0.71875 -14.078125 C 0.851562 -14.335938 1.101562 -14.46875 1.46875 -14.46875 Z M 1.46875 -14.46875 "/></g></g></g><g fill="#000000" fill-opacity="1"><g transform="translate(241.365595, 213.918941)"><g><path d="M 0.390625 -5.359375 C 0.390625 -6.054688 0.472656 -6.75 0.640625 -7.4375 C 0.804688 -8.132812 1.070312 -8.757812 1.4375 -9.3125 C 1.800781 -9.863281 2.273438 -10.3125 2.859375 -10.65625 C 3.441406 -11.007812 4.15625 -11.1875 5 -11.1875 C 5.46875 -11.1875 5.882812 -11.097656 6.25 -10.921875 C 6.613281 -10.753906 6.914062 -10.523438 7.15625 -10.234375 C 7.394531 -9.953125 7.578125 -9.617188 7.703125 -9.234375 C 7.828125 -8.859375 7.890625 -8.46875 7.890625 -8.0625 C 7.890625 -7.40625 7.738281 -6.769531 7.4375 -6.15625 C 7.132812 -5.539062 6.726562 -4.992188 6.21875 -4.515625 C 5.707031 -4.046875 5.125 -3.691406 4.46875 -3.453125 C 3.8125 -3.222656 3.144531 -3.171875 2.46875 -3.296875 C 2.476562 -2.921875 2.601562 -2.617188 2.84375 -2.390625 C 3.082031 -2.171875 3.367188 -2.003906 3.703125 -1.890625 C 4.035156 -1.773438 4.378906 -1.703125 4.734375 -1.671875 C 5.097656 -1.640625 5.421875 -1.625 5.703125 -1.625 C 6.003906 -1.625 6.28125 -1.648438 6.53125 -1.703125 C 6.789062 -1.753906 7.050781 -1.8125 7.3125 -1.875 C 7.570312 -1.9375 7.832031 -1.992188 8.09375 -2.046875 C 8.351562 -2.097656 8.632812 -2.125 8.9375 -2.125 C 9.050781 -2.125 9.164062 -2.113281 9.28125 -2.09375 C 9.394531 -2.082031 9.503906 -2.054688 9.609375 -2.015625 C 9.710938 -1.972656 9.796875 -1.898438 9.859375 -1.796875 C 9.921875 -1.703125 9.953125 -1.585938 9.953125 -1.453125 C 9.953125 -1.203125 9.859375 -0.992188 9.671875 -0.828125 C 9.492188 -0.671875 9.265625 -0.535156 8.984375 -0.421875 C 8.710938 -0.304688 8.410156 -0.21875 8.078125 -0.15625 C 7.742188 -0.101562 7.421875 -0.0625 7.109375 -0.03125 C 6.796875 0 6.503906 0.015625 6.234375 0.015625 C 5.972656 0.0234375 5.78125 0.03125 5.65625 0.03125 C 4.832031 0.03125 4.09375 -0.0976562 3.4375 -0.359375 C 2.78125 -0.617188 2.222656 -0.984375 1.765625 -1.453125 C 1.316406 -1.921875 0.972656 -2.484375 0.734375 -3.140625 C 0.503906 -3.804688 0.390625 -4.546875 0.390625 -5.359375 Z M 2.4375 -6.609375 C 2.4375 -6.160156 2.492188 -5.832031 2.609375 -5.625 C 2.734375 -5.425781 3.035156 -5.328125 3.515625 -5.328125 C 3.847656 -5.328125 4.171875 -5.382812 4.484375 -5.5 C 4.804688 -5.625 5.097656 -5.796875 5.359375 -6.015625 C 5.628906 -6.234375 5.84375 -6.488281 6 -6.78125 C 6.15625 -7.082031 6.234375 -7.40625 6.234375 -7.75 C 6.234375 -7.945312 6.21875 -8.144531 6.1875 -8.34375 C 6.15625 -8.550781 6.085938 -8.742188 5.984375 -8.921875 C 5.878906 -9.097656 5.742188 -9.238281 5.578125 -9.34375 C 5.421875 -9.457031 5.210938 -9.515625 4.953125 -9.515625 C 4.566406 -9.515625 4.21875 -9.425781 3.90625 -9.25 C 3.59375 -9.070312 3.328125 -8.84375 3.109375 -8.5625 C 2.890625 -8.289062 2.722656 -7.984375 2.609375 -7.640625 C 2.492188 -7.304688 2.4375 -6.960938 2.4375 -6.609375 Z M 2.4375 -6.609375 "/></g></g></g><g fill="#000000" fill-opacity="1"><g transform="translate(260.165376, 213.918941)"><g><path d="M 0.390625 -8.09375 C 0.390625 -8.21875 0.394531 -8.335938 0.40625 -8.453125 C 0.414062 -8.578125 0.441406 -8.6875 0.484375 -8.78125 C 0.523438 -8.882812 0.585938 -8.96875 0.671875 -9.03125 C 0.753906 -9.09375 0.867188 -9.125 1.015625 -9.125 C 1.148438 -9.125 1.296875 -9.023438 1.453125 -8.828125 C 1.617188 -8.628906 1.785156 -8.378906 1.953125 -8.078125 C 2.117188 -7.773438 2.28125 -7.441406 2.4375 -7.078125 C 2.601562 -6.710938 2.742188 -6.378906 2.859375 -6.078125 C 2.984375 -5.773438 3.082031 -5.515625 3.15625 -5.296875 C 3.238281 -5.078125 3.285156 -4.960938 3.296875 -4.953125 C 3.460938 -5.398438 3.648438 -5.890625 3.859375 -6.421875 C 4.066406 -6.953125 4.320312 -7.441406 4.625 -7.890625 C 4.925781 -8.347656 5.285156 -8.734375 5.703125 -9.046875 C 6.117188 -9.359375 6.628906 -9.515625 7.234375 -9.515625 C 7.546875 -9.515625 7.835938 -9.460938 8.109375 -9.359375 C 8.390625 -9.265625 8.632812 -9.125 8.84375 -8.9375 C 9.050781 -8.75 9.21875 -8.523438 9.34375 -8.265625 C 9.476562 -8.015625 9.546875 -7.722656 9.546875 -7.390625 C 9.546875 -7.109375 9.429688 -6.90625 9.203125 -6.78125 C 8.984375 -6.664062 8.734375 -6.609375 8.453125 -6.609375 L 8.25 -6.609375 L 7.421875 -7.4375 C 7.398438 -7.4375 7.382812 -7.445312 7.375 -7.46875 C 7.34375 -7.46875 7.316406 -7.46875 7.296875 -7.46875 C 7.273438 -7.476562 7.253906 -7.484375 7.234375 -7.484375 C 6.785156 -7.484375 6.4375 -7.359375 6.1875 -7.109375 C 5.9375 -6.859375 5.742188 -6.546875 5.609375 -6.171875 C 5.484375 -5.804688 5.40625 -5.421875 5.375 -5.015625 C 5.34375 -4.617188 5.328125 -4.253906 5.328125 -3.921875 C 5.328125 -3.660156 5.351562 -3.394531 5.40625 -3.125 C 5.457031 -2.863281 5.515625 -2.609375 5.578125 -2.359375 C 5.640625 -2.109375 5.695312 -1.851562 5.75 -1.59375 C 5.800781 -1.332031 5.828125 -1.054688 5.828125 -0.765625 C 5.828125 -0.234375 5.535156 0.03125 4.953125 0.03125 C 4.628906 0.03125 4.296875 -0.132812 3.953125 -0.46875 C 3.609375 -0.8125 3.265625 -1.242188 2.921875 -1.765625 C 2.578125 -2.296875 2.25 -2.878906 1.9375 -3.515625 C 1.632812 -4.148438 1.367188 -4.769531 1.140625 -5.375 C 0.910156 -5.976562 0.726562 -6.523438 0.59375 -7.015625 C 0.457031 -7.503906 0.390625 -7.863281 0.390625 -8.09375 Z M 0.390625 -8.09375 "/></g></g></g><g fill="#000000" fill-opacity="1"><g transform="translate(278.058842, 213.918941)"><g><path d="M 8.671875 -2.484375 C 8.191406 -2.148438 7.773438 -1.851562 7.421875 -1.59375 C 7.066406 -1.332031 6.71875 -1.109375 6.375 -0.921875 C 6.039062 -0.742188 5.6875 -0.609375 5.3125 -0.515625 C 4.9375 -0.429688 4.472656 -0.390625 3.921875 -0.390625 C 2.722656 -0.390625 1.832031 -0.707031 1.25 -1.34375 C 0.675781 -1.976562 0.390625 -2.925781 0.390625 -4.1875 C 0.390625 -4.675781 0.453125 -5.179688 0.578125 -5.703125 C 0.703125 -6.234375 0.890625 -6.757812 1.140625 -7.28125 C 1.398438 -7.800781 1.703125 -8.296875 2.046875 -8.765625 C 2.390625 -9.234375 2.78125 -9.644531 3.21875 -10 C 3.65625 -10.363281 4.117188 -10.648438 4.609375 -10.859375 C 5.109375 -11.078125 5.632812 -11.1875 6.1875 -11.1875 C 7.113281 -11.09375 7.835938 -10.863281 8.359375 -10.5 C 8.890625 -10.132812 9.289062 -9.664062 9.5625 -9.09375 C 9.832031 -8.519531 10.019531 -7.882812 10.125 -7.1875 C 10.226562 -6.488281 10.304688 -5.765625 10.359375 -5.015625 C 10.421875 -4.265625 10.492188 -3.515625 10.578125 -2.765625 C 10.671875 -2.023438 10.859375 -1.34375 11.140625 -0.71875 C 10.972656 -0.289062 10.816406 0.00390625 10.671875 0.171875 C 10.523438 0.347656 10.359375 0.378906 10.171875 0.265625 C 9.992188 0.148438 9.785156 -0.128906 9.546875 -0.578125 C 9.316406 -1.023438 9.023438 -1.660156 8.671875 -2.484375 Z M 2.03125 -4.140625 C 2.03125 -3.410156 2.164062 -2.875 2.4375 -2.53125 C 2.71875 -2.195312 3.210938 -2.03125 3.921875 -2.03125 C 4.441406 -2.03125 4.941406 -2.117188 5.421875 -2.296875 C 5.910156 -2.484375 6.332031 -2.738281 6.6875 -3.0625 C 7.050781 -3.394531 7.34375 -3.789062 7.5625 -4.25 C 7.78125 -4.71875 7.890625 -5.238281 7.890625 -5.8125 C 7.890625 -6.039062 7.894531 -6.363281 7.90625 -6.78125 C 7.914062 -7.195312 7.890625 -7.609375 7.828125 -8.015625 C 7.765625 -8.429688 7.640625 -8.789062 7.453125 -9.09375 C 7.273438 -9.394531 7.007812 -9.546875 6.65625 -9.546875 C 5.988281 -9.546875 5.367188 -9.375 4.796875 -9.03125 C 4.234375 -8.695312 3.742188 -8.265625 3.328125 -7.734375 C 2.921875 -7.203125 2.601562 -6.617188 2.375 -5.984375 C 2.144531 -5.347656 2.03125 -4.734375 2.03125 -4.140625 Z M 2.03125 -4.140625 "/></g></g></g><g fill="#000000" fill-opacity="1"><g transform="translate(196.258541, 238.028598)"><g><path d="M 0.21875 -4.625 C 0.21875 -4.707031 0.21875 -4.847656 0.21875 -5.046875 C 0.226562 -5.242188 0.234375 -5.453125 0.234375 -5.671875 C 0.234375 -5.890625 0.234375 -6.097656 0.234375 -6.296875 C 0.234375 -6.492188 0.234375 -6.628906 0.234375 -6.703125 C 0.242188 -6.753906 0.257812 -6.832031 0.28125 -6.9375 C 0.3125 -7.039062 0.347656 -7.144531 0.390625 -7.25 C 0.429688 -7.351562 0.484375 -7.441406 0.546875 -7.515625 C 0.617188 -7.585938 0.707031 -7.625 0.8125 -7.625 C 1.050781 -7.625 1.273438 -7.554688 1.484375 -7.421875 C 1.691406 -7.296875 1.890625 -7.125 2.078125 -6.90625 C 2.273438 -6.695312 2.460938 -6.460938 2.640625 -6.203125 C 2.816406 -5.953125 2.988281 -5.695312 3.15625 -5.4375 C 3.332031 -5.1875 3.503906 -4.945312 3.671875 -4.71875 C 3.835938 -4.488281 4.003906 -4.304688 4.171875 -4.171875 C 4.347656 -4.242188 4.488281 -4.382812 4.59375 -4.59375 C 4.695312 -4.8125 4.78125 -5.0625 4.84375 -5.34375 C 4.90625 -5.625 4.960938 -5.910156 5.015625 -6.203125 C 5.066406 -6.503906 5.140625 -6.78125 5.234375 -7.03125 C 5.328125 -7.28125 5.453125 -7.484375 5.609375 -7.640625 C 5.765625 -7.804688 5.976562 -7.890625 6.25 -7.890625 C 6.570312 -7.890625 6.863281 -7.765625 7.125 -7.515625 C 7.394531 -7.265625 7.632812 -6.941406 7.84375 -6.546875 C 8.050781 -6.160156 8.226562 -5.726562 8.375 -5.25 C 8.519531 -4.78125 8.644531 -4.328125 8.75 -3.890625 C 8.851562 -3.453125 8.925781 -3.054688 8.96875 -2.703125 C 9.019531 -2.347656 9.046875 -2.09375 9.046875 -1.9375 C 9.046875 -1.875 9.039062 -1.804688 9.03125 -1.734375 C 9.03125 -1.660156 9.015625 -1.59375 8.984375 -1.53125 C 8.953125 -1.46875 8.90625 -1.421875 8.84375 -1.390625 C 8.78125 -1.359375 8.6875 -1.359375 8.5625 -1.390625 C 8.53125 -1.398438 8.488281 -1.421875 8.4375 -1.453125 C 8.394531 -1.484375 8.347656 -1.523438 8.296875 -1.578125 C 8.242188 -1.628906 8.195312 -1.675781 8.15625 -1.71875 C 8.125 -1.769531 8.109375 -1.8125 8.109375 -1.84375 C 8.046875 -2.195312 7.972656 -2.585938 7.890625 -3.015625 C 7.816406 -3.453125 7.71875 -3.890625 7.59375 -4.328125 C 7.476562 -4.773438 7.328125 -5.207031 7.140625 -5.625 C 6.960938 -6.039062 6.742188 -6.398438 6.484375 -6.703125 C 6.273438 -6.585938 6.109375 -6.410156 5.984375 -6.171875 C 5.867188 -5.941406 5.769531 -5.6875 5.6875 -5.40625 C 5.613281 -5.132812 5.539062 -4.851562 5.46875 -4.5625 C 5.40625 -4.28125 5.320312 -4.019531 5.21875 -3.78125 C 5.113281 -3.550781 4.976562 -3.359375 4.8125 -3.203125 C 4.644531 -3.054688 4.421875 -2.984375 4.140625 -2.984375 C 3.941406 -2.984375 3.75 -3.046875 3.5625 -3.171875 C 3.382812 -3.296875 3.207031 -3.457031 3.03125 -3.65625 C 2.863281 -3.863281 2.695312 -4.09375 2.53125 -4.34375 C 2.375 -4.59375 2.21875 -4.835938 2.0625 -5.078125 C 1.90625 -5.316406 1.753906 -5.539062 1.609375 -5.75 C 1.460938 -5.96875 1.3125 -6.132812 1.15625 -6.25 C 1.09375 -6.03125 1.046875 -5.832031 1.015625 -5.65625 C 0.984375 -5.488281 0.957031 -5.328125 0.9375 -5.171875 C 0.925781 -5.015625 0.914062 -4.851562 0.90625 -4.6875 C 0.90625 -4.519531 0.90625 -4.335938 0.90625 -4.140625 C 0.90625 -3.835938 0.929688 -3.535156 0.984375 -3.234375 C 1.035156 -2.929688 1.085938 -2.632812 1.140625 -2.34375 C 1.203125 -2.050781 1.257812 -1.753906 1.3125 -1.453125 C 1.363281 -1.148438 1.390625 -0.847656 1.390625 -0.546875 L 1.390625 -0.46875 C 1.378906 -0.445312 1.351562 -0.410156 1.3125 -0.359375 C 1.269531 -0.316406 1.222656 -0.269531 1.171875 -0.21875 C 1.128906 -0.164062 1.082031 -0.117188 1.03125 -0.078125 C 0.976562 -0.0351562 0.941406 -0.0078125 0.921875 0 C 0.910156 0.0078125 0.894531 0.015625 0.875 0.015625 C 0.851562 0.015625 0.832031 0.015625 0.8125 0.015625 C 0.789062 0.015625 0.769531 0.0078125 0.75 0 C 0.726562 0 0.710938 0 0.703125 0 C 0.648438 -0.414062 0.59375 -0.8125 0.53125 -1.1875 C 0.476562 -1.5625 0.425781 -1.929688 0.375 -2.296875 C 0.332031 -2.671875 0.296875 -3.039062 0.265625 -3.40625 C 0.234375 -3.78125 0.21875 -4.1875 0.21875 -4.625 Z M 0.21875 -4.625 "/></g></g></g><g fill="#000000" fill-opacity="1"><g transform="translate(209.661673, 238.028598)"><g><path d="M 4.859375 -1.390625 C 4.585938 -1.203125 4.351562 -1.035156 4.15625 -0.890625 C 3.957031 -0.742188 3.765625 -0.617188 3.578125 -0.515625 C 3.390625 -0.421875 3.1875 -0.347656 2.96875 -0.296875 C 2.757812 -0.242188 2.5 -0.21875 2.1875 -0.21875 C 1.519531 -0.21875 1.023438 -0.394531 0.703125 -0.75 C 0.378906 -1.101562 0.21875 -1.632812 0.21875 -2.34375 C 0.21875 -2.613281 0.253906 -2.894531 0.328125 -3.1875 C 0.398438 -3.488281 0.503906 -3.785156 0.640625 -4.078125 C 0.785156 -4.367188 0.953125 -4.644531 1.140625 -4.90625 C 1.335938 -5.164062 1.554688 -5.394531 1.796875 -5.59375 C 2.046875 -5.800781 2.304688 -5.960938 2.578125 -6.078125 C 2.859375 -6.203125 3.15625 -6.265625 3.46875 -6.265625 C 3.988281 -6.210938 4.394531 -6.082031 4.6875 -5.875 C 4.976562 -5.675781 5.195312 -5.414062 5.34375 -5.09375 C 5.5 -4.769531 5.609375 -4.410156 5.671875 -4.015625 C 5.734375 -3.628906 5.78125 -3.226562 5.8125 -2.8125 C 5.84375 -2.394531 5.878906 -1.972656 5.921875 -1.546875 C 5.972656 -1.128906 6.082031 -0.75 6.25 -0.40625 C 6.15625 -0.164062 6.066406 0 5.984375 0.09375 C 5.898438 0.195312 5.804688 0.210938 5.703125 0.140625 C 5.597656 0.078125 5.476562 -0.078125 5.34375 -0.328125 C 5.21875 -0.578125 5.054688 -0.929688 4.859375 -1.390625 Z M 1.140625 -2.328125 C 1.140625 -1.910156 1.210938 -1.609375 1.359375 -1.421875 C 1.515625 -1.234375 1.789062 -1.140625 2.1875 -1.140625 C 2.488281 -1.140625 2.773438 -1.191406 3.046875 -1.296875 C 3.316406 -1.398438 3.550781 -1.539062 3.75 -1.71875 C 3.945312 -1.90625 4.109375 -2.128906 4.234375 -2.390625 C 4.359375 -2.648438 4.421875 -2.9375 4.421875 -3.25 C 4.421875 -3.382812 4.421875 -3.566406 4.421875 -3.796875 C 4.429688 -4.035156 4.414062 -4.269531 4.375 -4.5 C 4.34375 -4.726562 4.273438 -4.925781 4.171875 -5.09375 C 4.078125 -5.257812 3.929688 -5.34375 3.734375 -5.34375 C 3.359375 -5.34375 3.007812 -5.25 2.6875 -5.0625 C 2.375 -4.875 2.097656 -4.628906 1.859375 -4.328125 C 1.628906 -4.035156 1.453125 -3.707031 1.328125 -3.34375 C 1.203125 -2.988281 1.140625 -2.648438 1.140625 -2.328125 Z M 1.140625 -2.328125 "/></g></g></g><g fill="#000000" fill-opacity="1"><g transform="translate(220.288377, 238.028598)"><g><path d="M 0.21875 -4.53125 C 0.21875 -4.601562 0.21875 -4.671875 0.21875 -4.734375 C 0.226562 -4.804688 0.242188 -4.867188 0.265625 -4.921875 C 0.285156 -4.972656 0.316406 -5.015625 0.359375 -5.046875 C 0.410156 -5.085938 0.484375 -5.109375 0.578125 -5.109375 C 0.648438 -5.109375 0.726562 -5.050781 0.8125 -4.9375 C 0.90625 -4.832031 1 -4.691406 1.09375 -4.515625 C 1.1875 -4.347656 1.273438 -4.160156 1.359375 -3.953125 C 1.453125 -3.753906 1.53125 -3.570312 1.59375 -3.40625 C 1.664062 -3.238281 1.722656 -3.09375 1.765625 -2.96875 C 1.816406 -2.84375 1.84375 -2.78125 1.84375 -2.78125 C 1.9375 -3.03125 2.039062 -3.300781 2.15625 -3.59375 C 2.269531 -3.894531 2.410156 -4.171875 2.578125 -4.421875 C 2.753906 -4.679688 2.957031 -4.894531 3.1875 -5.0625 C 3.425781 -5.238281 3.710938 -5.328125 4.046875 -5.328125 C 4.222656 -5.328125 4.390625 -5.296875 4.546875 -5.234375 C 4.703125 -5.179688 4.835938 -5.101562 4.953125 -5 C 5.066406 -4.894531 5.160156 -4.769531 5.234375 -4.625 C 5.304688 -4.488281 5.34375 -4.328125 5.34375 -4.140625 C 5.34375 -3.984375 5.28125 -3.867188 5.15625 -3.796875 C 5.03125 -3.734375 4.890625 -3.703125 4.734375 -3.703125 L 4.625 -3.703125 L 4.15625 -4.171875 C 4.144531 -4.171875 4.132812 -4.175781 4.125 -4.1875 C 4.113281 -4.1875 4.101562 -4.1875 4.09375 -4.1875 C 4.082031 -4.1875 4.066406 -4.1875 4.046875 -4.1875 C 3.796875 -4.1875 3.597656 -4.113281 3.453125 -3.96875 C 3.316406 -3.832031 3.210938 -3.660156 3.140625 -3.453125 C 3.066406 -3.253906 3.019531 -3.039062 3 -2.8125 C 2.988281 -2.582031 2.984375 -2.375 2.984375 -2.1875 C 2.984375 -2.050781 2.992188 -1.90625 3.015625 -1.75 C 3.046875 -1.601562 3.078125 -1.457031 3.109375 -1.3125 C 3.148438 -1.175781 3.1875 -1.035156 3.21875 -0.890625 C 3.25 -0.742188 3.265625 -0.59375 3.265625 -0.4375 C 3.265625 -0.132812 3.101562 0.015625 2.78125 0.015625 C 2.59375 0.015625 2.398438 -0.078125 2.203125 -0.265625 C 2.015625 -0.453125 1.820312 -0.691406 1.625 -0.984375 C 1.4375 -1.285156 1.253906 -1.613281 1.078125 -1.96875 C 0.910156 -2.320312 0.757812 -2.664062 0.625 -3 C 0.5 -3.34375 0.398438 -3.648438 0.328125 -3.921875 C 0.253906 -4.203125 0.21875 -4.40625 0.21875 -4.53125 Z M 0.21875 -4.53125 "/></g></g></g><g fill="#000000" fill-opacity="1"><g transform="translate(229.726728, 238.028598)"><g><path d="M 0.671875 -4.046875 C 0.671875 -4.085938 0.671875 -4.15625 0.671875 -4.25 C 0.679688 -4.351562 0.6875 -4.457031 0.6875 -4.5625 C 0.6875 -4.675781 0.6875 -4.78125 0.6875 -4.875 C 0.695312 -4.976562 0.703125 -5.050781 0.703125 -5.09375 C 0.785156 -5.207031 0.890625 -5.300781 1.015625 -5.375 C 1.140625 -5.445312 1.265625 -5.503906 1.390625 -5.546875 C 1.410156 -5.160156 1.472656 -4.75 1.578125 -4.3125 C 1.679688 -3.875 1.789062 -3.429688 1.90625 -2.984375 C 2.019531 -2.546875 2.117188 -2.109375 2.203125 -1.671875 C 2.296875 -1.242188 2.34375 -0.84375 2.34375 -0.46875 C 2.34375 -0.144531 2.175781 0.015625 1.84375 0.015625 C 1.644531 0.015625 1.476562 -0.0625 1.34375 -0.21875 C 1.207031 -0.382812 1.097656 -0.597656 1.015625 -0.859375 C 0.929688 -1.117188 0.863281 -1.40625 0.8125 -1.71875 C 0.757812 -2.03125 0.722656 -2.335938 0.703125 -2.640625 C 0.691406 -2.941406 0.679688 -3.21875 0.671875 -3.46875 C 0.671875 -3.71875 0.671875 -3.910156 0.671875 -4.046875 Z M 0.828125 -8.109375 C 0.960938 -8.046875 1.078125 -7.945312 1.171875 -7.8125 C 1.265625 -7.6875 1.304688 -7.570312 1.296875 -7.46875 C 1.285156 -7.363281 1.203125 -7.289062 1.046875 -7.25 C 0.898438 -7.207031 0.648438 -7.25 0.296875 -7.375 C 0.296875 -7.570312 0.332031 -7.742188 0.40625 -7.890625 C 0.476562 -8.035156 0.617188 -8.109375 0.828125 -8.109375 Z M 0.828125 -8.109375 "/></g></g></g><g fill="#000000" fill-opacity="1"><g transform="translate(236.19419, 238.028598)"><g><path d="M 0.21875 -4.40625 C 0.21875 -4.445312 0.21875 -4.523438 0.21875 -4.640625 C 0.226562 -4.753906 0.234375 -4.867188 0.234375 -4.984375 C 0.234375 -5.109375 0.234375 -5.222656 0.234375 -5.328125 C 0.234375 -5.429688 0.234375 -5.503906 0.234375 -5.546875 C 0.285156 -5.640625 0.34375 -5.726562 0.40625 -5.8125 C 0.476562 -5.894531 0.550781 -5.953125 0.625 -5.984375 C 0.707031 -6.015625 0.789062 -6.019531 0.875 -6 C 0.96875 -5.976562 1.0625 -5.90625 1.15625 -5.78125 L 1.15625 -5.546875 C 1.144531 -5.515625 1.128906 -5.429688 1.109375 -5.296875 C 1.085938 -5.160156 1.0625 -5.015625 1.03125 -4.859375 C 1.007812 -4.703125 0.984375 -4.554688 0.953125 -4.421875 C 0.929688 -4.285156 0.921875 -4.203125 0.921875 -4.171875 C 0.921875 -4.035156 0.929688 -3.863281 0.953125 -3.65625 C 0.984375 -3.445312 1.023438 -3.226562 1.078125 -3 C 1.140625 -2.78125 1.210938 -2.5625 1.296875 -2.34375 C 1.378906 -2.125 1.476562 -1.925781 1.59375 -1.75 C 1.707031 -1.570312 1.832031 -1.425781 1.96875 -1.3125 C 2.113281 -1.195312 2.28125 -1.140625 2.46875 -1.140625 C 2.695312 -1.140625 2.898438 -1.195312 3.078125 -1.3125 C 3.253906 -1.4375 3.40625 -1.59375 3.53125 -1.78125 C 3.664062 -1.976562 3.769531 -2.195312 3.84375 -2.4375 C 3.925781 -2.6875 3.992188 -2.9375 4.046875 -3.1875 C 4.097656 -3.4375 4.132812 -3.675781 4.15625 -3.90625 C 4.175781 -4.132812 4.1875 -4.335938 4.1875 -4.515625 C 4.1875 -4.691406 4.171875 -4.851562 4.140625 -5 C 4.117188 -5.15625 4.09375 -5.304688 4.0625 -5.453125 C 4.03125 -5.609375 4 -5.757812 3.96875 -5.90625 C 3.945312 -6.0625 3.9375 -6.210938 3.9375 -6.359375 C 3.9375 -6.492188 3.984375 -6.585938 4.078125 -6.640625 C 4.171875 -6.703125 4.28125 -6.734375 4.40625 -6.734375 C 4.5625 -6.734375 4.6875 -6.6875 4.78125 -6.59375 C 4.875 -6.507812 4.945312 -6.398438 5 -6.265625 C 5.050781 -6.128906 5.082031 -5.972656 5.09375 -5.796875 C 5.113281 -5.617188 5.125 -5.441406 5.125 -5.265625 C 5.125 -5.097656 5.117188 -4.9375 5.109375 -4.78125 C 5.109375 -4.625 5.109375 -4.5 5.109375 -4.40625 C 5.109375 -4.164062 5.085938 -3.890625 5.046875 -3.578125 C 5.015625 -3.265625 4.953125 -2.941406 4.859375 -2.609375 C 4.773438 -2.285156 4.664062 -1.960938 4.53125 -1.640625 C 4.394531 -1.328125 4.234375 -1.046875 4.046875 -0.796875 C 3.859375 -0.554688 3.640625 -0.359375 3.390625 -0.203125 C 3.140625 -0.0546875 2.859375 0.015625 2.546875 0.015625 C 2.222656 0.015625 1.9375 -0.0546875 1.6875 -0.203125 C 1.445312 -0.359375 1.242188 -0.5625 1.078125 -0.8125 C 0.910156 -1.070312 0.765625 -1.363281 0.640625 -1.6875 C 0.523438 -2.019531 0.4375 -2.347656 0.375 -2.671875 C 0.320312 -2.992188 0.28125 -3.304688 0.25 -3.609375 C 0.226562 -3.921875 0.21875 -4.1875 0.21875 -4.40625 Z M 0.21875 -4.40625 "/></g></g></g><g fill="#000000" fill-opacity="1"><g transform="translate(245.664948, 238.028598)"><g><path d="M 2.296875 -0.484375 C 2.410156 -0.566406 2.546875 -0.671875 2.703125 -0.796875 C 2.867188 -0.921875 3.035156 -1.054688 3.203125 -1.203125 C 3.367188 -1.347656 3.519531 -1.5 3.65625 -1.65625 C 3.800781 -1.8125 3.914062 -1.960938 4 -2.109375 C 4.082031 -2.253906 4.125 -2.390625 4.125 -2.515625 C 4.125 -2.648438 4.0625 -2.765625 3.9375 -2.859375 C 3.707031 -2.859375 3.453125 -2.847656 3.171875 -2.828125 C 2.898438 -2.804688 2.625 -2.796875 2.34375 -2.796875 C 2.070312 -2.804688 1.804688 -2.832031 1.546875 -2.875 C 1.296875 -2.914062 1.070312 -2.992188 0.875 -3.109375 C 0.675781 -3.222656 0.515625 -3.382812 0.390625 -3.59375 C 0.273438 -3.8125 0.21875 -4.085938 0.21875 -4.421875 C 0.21875 -4.804688 0.289062 -5.15625 0.4375 -5.46875 C 0.582031 -5.78125 0.773438 -6.054688 1.015625 -6.296875 C 1.265625 -6.546875 1.539062 -6.757812 1.84375 -6.9375 C 2.15625 -7.125 2.46875 -7.28125 2.78125 -7.40625 C 2.96875 -7.351562 3.140625 -7.265625 3.296875 -7.140625 C 3.453125 -7.015625 3.585938 -6.867188 3.703125 -6.703125 C 3.648438 -6.546875 3.550781 -6.425781 3.40625 -6.34375 C 3.257812 -6.257812 3.085938 -6.179688 2.890625 -6.109375 C 2.703125 -6.046875 2.503906 -5.976562 2.296875 -5.90625 C 2.085938 -5.832031 1.898438 -5.734375 1.734375 -5.609375 C 1.566406 -5.492188 1.425781 -5.34375 1.3125 -5.15625 C 1.195312 -4.96875 1.140625 -4.71875 1.140625 -4.40625 C 1.140625 -4.175781 1.195312 -4.003906 1.3125 -3.890625 C 1.425781 -3.785156 1.578125 -3.710938 1.765625 -3.671875 C 1.953125 -3.640625 2.160156 -3.628906 2.390625 -3.640625 C 2.628906 -3.648438 2.875 -3.664062 3.125 -3.6875 C 3.375 -3.707031 3.617188 -3.71875 3.859375 -3.71875 C 4.097656 -3.726562 4.3125 -3.703125 4.5 -3.640625 C 4.6875 -3.578125 4.832031 -3.476562 4.9375 -3.34375 C 5.050781 -3.207031 5.109375 -3.003906 5.109375 -2.734375 C 5.109375 -2.617188 5.070312 -2.46875 5 -2.28125 C 4.925781 -2.101562 4.820312 -1.910156 4.6875 -1.703125 C 4.5625 -1.503906 4.414062 -1.300781 4.25 -1.09375 C 4.082031 -0.894531 3.90625 -0.710938 3.71875 -0.546875 C 3.539062 -0.390625 3.359375 -0.257812 3.171875 -0.15625 C 2.984375 -0.0507812 2.8125 0 2.65625 0 C 2.507812 0 2.410156 -0.0507812 2.359375 -0.15625 C 2.316406 -0.269531 2.296875 -0.378906 2.296875 -0.484375 Z M 2.296875 -0.484375 "/></g></g></g><g fill="#000000" fill-opacity="1"><g transform="translate(254.908838, 238.028598)"><g><path d="M 3.9375 -5.328125 C 3.945312 -5.335938 3.957031 -5.351562 3.96875 -5.375 C 3.976562 -5.40625 3.984375 -5.425781 3.984375 -5.4375 C 3.984375 -5.601562 3.882812 -5.710938 3.6875 -5.765625 C 3.488281 -5.828125 3.238281 -5.851562 2.9375 -5.84375 C 2.644531 -5.84375 2.328125 -5.828125 1.984375 -5.796875 C 1.648438 -5.773438 1.332031 -5.765625 1.03125 -5.765625 C 0.738281 -5.765625 0.492188 -5.796875 0.296875 -5.859375 C 0.0976562 -5.929688 0 -6.0625 0 -6.25 C 0 -6.375 0.00390625 -6.46875 0.015625 -6.53125 C 0.0351562 -6.59375 0.0625 -6.632812 0.09375 -6.65625 C 0.132812 -6.6875 0.179688 -6.703125 0.234375 -6.703125 C 0.296875 -6.703125 0.359375 -6.703125 0.421875 -6.703125 L 0.703125 -6.703125 C 0.785156 -6.703125 0.925781 -6.695312 1.125 -6.6875 C 1.320312 -6.675781 1.539062 -6.664062 1.78125 -6.65625 C 2.03125 -6.644531 2.285156 -6.628906 2.546875 -6.609375 C 2.816406 -6.585938 3.070312 -6.566406 3.3125 -6.546875 C 3.5625 -6.535156 3.78125 -6.523438 3.96875 -6.515625 C 4.15625 -6.503906 4.300781 -6.492188 4.40625 -6.484375 C 4.539062 -6.398438 4.648438 -6.328125 4.734375 -6.265625 C 4.828125 -6.203125 4.898438 -6.132812 4.953125 -6.0625 C 5.003906 -6 5.039062 -5.929688 5.0625 -5.859375 C 5.09375 -5.785156 5.109375 -5.691406 5.109375 -5.578125 C 5.109375 -5.328125 5.054688 -5.082031 4.953125 -4.84375 C 4.859375 -4.613281 4.734375 -4.378906 4.578125 -4.140625 C 4.421875 -3.910156 4.242188 -3.675781 4.046875 -3.4375 C 3.847656 -3.207031 3.65625 -2.976562 3.46875 -2.75 C 3.28125 -2.519531 3.101562 -2.289062 2.9375 -2.0625 C 2.769531 -1.832031 2.640625 -1.609375 2.546875 -1.390625 L 5.328125 -1.390625 C 5.535156 -1.390625 5.664062 -1.347656 5.71875 -1.265625 C 5.78125 -1.191406 5.8125 -1.082031 5.8125 -0.9375 C 5.8125 -0.832031 5.800781 -0.738281 5.78125 -0.65625 C 5.757812 -0.570312 5.679688 -0.507812 5.546875 -0.46875 C 5.203125 -0.4375 4.851562 -0.390625 4.5 -0.328125 C 4.144531 -0.273438 3.789062 -0.21875 3.4375 -0.15625 C 3.09375 -0.101562 2.738281 -0.0546875 2.375 -0.015625 C 2.019531 0.0234375 1.664062 0.046875 1.3125 0.046875 C 1.3125 -0.460938 1.390625 -0.957031 1.546875 -1.4375 C 1.710938 -1.914062 1.925781 -2.378906 2.1875 -2.828125 C 2.445312 -3.273438 2.726562 -3.707031 3.03125 -4.125 C 3.332031 -4.539062 3.632812 -4.941406 3.9375 -5.328125 Z M 3.9375 -5.328125 "/></g></g></g><g fill="#000000" fill-opacity="1"><g transform="translate(265.081805, 238.028598)"><g><path d="M 4.859375 -1.390625 C 4.585938 -1.203125 4.351562 -1.035156 4.15625 -0.890625 C 3.957031 -0.742188 3.765625 -0.617188 3.578125 -0.515625 C 3.390625 -0.421875 3.1875 -0.347656 2.96875 -0.296875 C 2.757812 -0.242188 2.5 -0.21875 2.1875 -0.21875 C 1.519531 -0.21875 1.023438 -0.394531 0.703125 -0.75 C 0.378906 -1.101562 0.21875 -1.632812 0.21875 -2.34375 C 0.21875 -2.613281 0.253906 -2.894531 0.328125 -3.1875 C 0.398438 -3.488281 0.503906 -3.785156 0.640625 -4.078125 C 0.785156 -4.367188 0.953125 -4.644531 1.140625 -4.90625 C 1.335938 -5.164062 1.554688 -5.394531 1.796875 -5.59375 C 2.046875 -5.800781 2.304688 -5.960938 2.578125 -6.078125 C 2.859375 -6.203125 3.15625 -6.265625 3.46875 -6.265625 C 3.988281 -6.210938 4.394531 -6.082031 4.6875 -5.875 C 4.976562 -5.675781 5.195312 -5.414062 5.34375 -5.09375 C 5.5 -4.769531 5.609375 -4.410156 5.671875 -4.015625 C 5.734375 -3.628906 5.78125 -3.226562 5.8125 -2.8125 C 5.84375 -2.394531 5.878906 -1.972656 5.921875 -1.546875 C 5.972656 -1.128906 6.082031 -0.75 6.25 -0.40625 C 6.15625 -0.164062 6.066406 0 5.984375 0.09375 C 5.898438 0.195312 5.804688 0.210938 5.703125 0.140625 C 5.597656 0.078125 5.476562 -0.078125 5.34375 -0.328125 C 5.21875 -0.578125 5.054688 -0.929688 4.859375 -1.390625 Z M 1.140625 -2.328125 C 1.140625 -1.910156 1.210938 -1.609375 1.359375 -1.421875 C 1.515625 -1.234375 1.789062 -1.140625 2.1875 -1.140625 C 2.488281 -1.140625 2.773438 -1.191406 3.046875 -1.296875 C 3.316406 -1.398438 3.550781 -1.539062 3.75 -1.71875 C 3.945312 -1.90625 4.109375 -2.128906 4.234375 -2.390625 C 4.359375 -2.648438 4.421875 -2.9375 4.421875 -3.25 C 4.421875 -3.382812 4.421875 -3.566406 4.421875 -3.796875 C 4.429688 -4.035156 4.414062 -4.269531 4.375 -4.5 C 4.34375 -4.726562 4.273438 -4.925781 4.171875 -5.09375 C 4.078125 -5.257812 3.929688 -5.34375 3.734375 -5.34375 C 3.359375 -5.34375 3.007812 -5.25 2.6875 -5.0625 C 2.375 -4.875 2.097656 -4.628906 1.859375 -4.328125 C 1.628906 -4.035156 1.453125 -3.707031 1.328125 -3.34375 C 1.203125 -2.988281 1.140625 -2.648438 1.140625 -2.328125 Z M 1.140625 -2.328125 "/></g></g></g></svg>